<?xml version="1.0"?><svg width="2420" height="1870" xmlns="http://www.w3.org/2000/svg">

 <metadata id="metadata3153">image/svg+xml</metadata>
 <g>
  <title>Layer 1</title>
  <path fill="#808000" stroke="#000000" stroke-width="6" stroke-linejoin="round" stroke-miterlimit="4" stroke-dashoffset="0" d="m53.79771,209.994339l2324.120014,0l0,1590.077072l-1005.181885,0c-17.914917,29.555298 -295.84082,31.033081 -310.851074,0l-1008.087055,0l0,-1590.077072z" id="rect4992"/>
  <path fill="#e3e2db" stroke="#000000" stroke-width="2" stroke-linejoin="round" stroke-miterlimit="4" stroke-dashoffset="0" id="path4995" d="m77.049194,215.914429c189.801849,0 563.473267,-132.613327 753.274353,-132.613327c189.801514,0 338.364929,51.193375 385.534241,132.613327c82.869141,-143.042213 307.18811,-132.613327 409.259155,-132.613327c366.168091,0 392.929321,132.613327 729.549072,132.613327c0,522.137634 0,1044.275269 0,1566.413086c-458.700562,0 -591.035278,-64.635986 -688.876953,-64.635986c-94.200806,0 -170.741821,-31.434204 -324.35376,62.244141l-125.577515,2.391846l-125.687134,1.000854c-41.471069,-73.075928 -224.322815,-68.592407 -312.139771,-68.592407c-189.760376,0 -427.29895,67.591553 -700.981689,67.591553c0,-522.137817 0,-1044.275452 0,-1566.413086z"/>
  <path fill="#e3e2db" stroke="#000000" stroke-width="4" stroke-linejoin="round" stroke-miterlimit="4" stroke-dashoffset="0" d="m101.279114,186.350082c185.929596,0 551.978577,-132.614964 737.908142,-132.614964c185.929688,0 331.462646,51.19392 377.669556,132.614964c81.178589,-143.044113 300.921753,-132.614964 400.910767,-132.614964c358.698364,0 384.91394,132.614964 714.666992,132.614964c0,522.144302 0,1044.288467 0,1566.432755c-210.203369,12.734009 -998.374146,-405.365723 -1115.577759,24.033569c-85.816895,-397.849609 -744.566406,-9.41333 -1115.577698,-24.033569c0,-522.144287 0,-1044.288452 0,-1566.432755z" id="rect4989"/>
  <path fill="none" stroke="#000000" stroke-width="0.7" stroke-linejoin="round" stroke-miterlimit="4" stroke-dashoffset="0" d="m2341.393555,1766.489136c-391.334961,4.528076 -880.609131,-285.388672 -1061.534546,14.368042" id="path5015"/>
  <path fill="none" stroke="#000000" stroke-width="0.7" stroke-linejoin="round" stroke-miterlimit="4" stroke-dashoffset="0" d="m1236.206177,1782.424561c175.147461,-394.483398 770.001709,-14.541992 1099.024536,-24.294922" id="path5013"/>
  <path fill="none" stroke="#000000" stroke-width="0.7" stroke-linejoin="round" stroke-miterlimit="4" stroke-dashoffset="0" d="m1327.363525,1779.550903c206.622681,-210.720825 448.083496,-3.657227 1019.165771,-5.747192" id="path5017"/>
  <path fill="none" stroke="#000000" stroke-width="0.7" stroke-linejoin="round" stroke-miterlimit="4" stroke-dashoffset="0" d="m1259.316528,1780.595825c152.312622,-292.811401 602.348145,-90.915405 864.326294,-51.724365" id="path5019"/>
  <path fill="none" stroke="#000000" stroke-width="0.7" stroke-linejoin="round" stroke-miterlimit="4" stroke-dashoffset="0" d="m1305.423218,1780.073364c175.031006,-251.338013 657.017456,-13.93396 888.463989,-24.033569" id="path5021"/>
  <path fill="#e3e2db" stroke="#000000" stroke-width="4" stroke-linejoin="round" stroke-miterlimit="4" stroke-dashoffset="0" d="m77.030396,221.155167l-0.030495,-5.184448l23.386955,-29.64418l-0.105324,33.3918" id="path5023"/>
  <path fill="#e3e2db" stroke="#000000" stroke-width="4" stroke-linejoin="round" stroke-miterlimit="4" stroke-dashoffset="0" d="m2354.676514,222.924805l0,-6.927032l-23.331787,-29.64769l0.09082,35.096954" id="path5025"/>
  <path fill="#89a02c" stroke="#000000" stroke-width="2" stroke-linejoin="round" stroke-miterlimit="4" stroke-dashoffset="0" d="m1215.857788,187.088959l0.319458,1588.020905" id="path4997"/>
  <path fill="none" stroke="#000000" stroke-width="0.7" stroke-linejoin="round" stroke-miterlimit="4" stroke-dashoffset="0" d="m1203.147705,1781.229858c-124.967163,-366.721069 -661.49646,-9.326782 -1108.593491,-20.974854" id="path4999"/>
  <path fill="none" stroke="#000000" stroke-width="0.7" stroke-linejoin="round" stroke-miterlimit="4" stroke-dashoffset="0" d="m1181.359131,1782.707642c-106.470703,-250.453003 -427.167725,-113.309082 -777.322021,-57.136719" id="path5001"/>
  <path fill="none" stroke="#000000" stroke-width="0.7" stroke-linejoin="round" stroke-miterlimit="4" stroke-dashoffset="0" d="m1154.48645,1781.229858c-122.932617,-258.180176 -603.69989,-12.052734 -1065.618057,-13.848633" id="path5003"/>
  <path fill="none" stroke="#000000" stroke-width="0.7" stroke-linejoin="round" stroke-miterlimit="4" stroke-dashoffset="0" d="m1128.703247,1782.338135c-81.039917,-174.668457 -474.663269,-65.914673 -753.886444,-38.421875" id="path5005"/>
  <path fill="none" stroke="#000000" stroke-width="0.7" stroke-linejoin="round" stroke-miterlimit="4" stroke-dashoffset="0" d="m1104.372681,1782.338135c-102.834961,-189.380859 -676.14856,3.068848 -1020.881584,-8.344116" id="path5007"/>
  <path fill="none" stroke="#000000" stroke-width="4" stroke-linejoin="round" stroke-miterlimit="4" stroke-dashoffset="0" d="m2331.37915,1752.643799l22.59668,28.996948" id="path5009"/>
  <path fill="none" stroke="#000000" stroke-width="0.7" stroke-linejoin="round" stroke-miterlimit="4" stroke-dashoffset="0" d="m100.333664,1752.774414l-22.59684,28.866333" id="path5011"/>
  <path fill="#e3e2db" stroke="#000000" stroke-width="0.7" stroke-linejoin="round" stroke-miterlimit="4" stroke-dashoffset="0" d="m80.761131,211.379745l2.753372,1562.162735" id="path5027"/>
  <path fill="#e3e2db" stroke="#000000" stroke-width="0.7" stroke-linejoin="round" stroke-miterlimit="4" stroke-dashoffset="0" d="m89.420197,1766.489136l-2.824646,-1562.444824l0,0" id="path5029"/>
  <path fill="#e3e2db" stroke="#000000" stroke-width="0.7" stroke-linejoin="round" stroke-miterlimit="4" stroke-dashoffset="0" d="m91.731339,196.990921l3.338158,1563.228561" id="path5031"/>
  <path fill="#e3e2db" stroke="#000000" stroke-width="0.7" stroke-linejoin="round" stroke-miterlimit="4" stroke-dashoffset="0" d="m2347.556396,1773.28125l2.581055,-1562.548019" id="path5033"/>
  <path fill="#e3e2db" stroke="#000000" stroke-width="0.7" stroke-linejoin="round" stroke-miterlimit="4" stroke-dashoffset="0" d="m2344.508545,203.713837l-3.268311,1561.814728" id="path5035"/>
  <path fill="#e3e2db" stroke="#000000" stroke-width="0.7" stroke-linejoin="round" stroke-miterlimit="4" stroke-dashoffset="0" d="m2335.248535,1757.770264l3.191895,-1562.216171" id="path5037"/>
 </g>
</svg>